<svg xmlns="http://www.w3.org/2000/svg" viewBox="0 0 1600 900"><defs><linearGradient id="sky" x1="0" y1="0" x2="0" y2="1"><stop stop-color="#c9f0d2"/><stop offset=".55" stop-color="#86c49a"/><stop offset="1" stop-color="#426e4e"/></linearGradient><linearGradient id="ground" x1="0" y1="0" x2="0" y2="1"><stop stop-color="#708b43"/><stop offset="1" stop-color="#24452f"/></linearGradient><linearGradient id="log" x1="0" x2="1"><stop stop-color="#3c2418"/><stop offset=".48" stop-color="#8a5a32"/><stop offset="1" stop-color="#382117"/></linearGradient><radialGradient id="sun"><stop stop-color="#fffbd5" stop-opacity=".98"/><stop offset="1" stop-color="#fff5ad" stop-opacity="0"/></radialGradient><filter id="soft"><feGaussianBlur stdDeviation="12"/></filter><filter id="shadow"><feDropShadow dx="0" dy="16" stdDeviation="14" flood-opacity=".28"/></filter></defs><rect width="1600" height="900" fill="url(#sky)"/><circle cx="820" cy="150" r="270" fill="url(#sun)"/><path d="M0 460C220 360 380 390 560 430c210 48 410 26 600-24 190-50 292-21 440 42V900H0Z" fill="url(#ground)"/><path d="M745 900c-26-202-12-334 52-452 58-106 110-164 164-245-86 58-161 120-220 198-104 138-149 285-157 499z" fill="#c6ad72" opacity=".72"/><g opacity=".62"><path d="M80 0h145l35 440-185 0z" fill="#173a27"/><path d="M265 0h125l30 405-154 0z" fill="#204a30"/><path d="M1220 0h136l-30 445-165 0z" fill="#1f4830"/><path d="M1390 0h148l-8 455-176 0z" fill="#173a27"/></g><g fill="#255c35"><circle cx="130" cy="135" r="235"/><circle cx="330" cy="115" r="190"/><circle cx="515" cy="80" r="170"/><circle cx="1110" cy="105" r="210"/><circle cx="1330" cy="120" r="230"/><circle cx="1530" cy="90" r="170"/></g><g fill="#4f853e"><circle cx="210" cy="205" r="120"/><circle cx="450" cy="175" r="130"/><circle cx="1180" cy="195" r="145"/><circle cx="1450" cy="210" r="120"/></g><g opacity=".28" fill="#fff7c4" filter="url(#soft)"><path d="M650 0l120 0-190 610-175 0z"/><path d="M810 0l88 0-55 570-115 0z"/><path d="M970 0l75 0 105 510-98 0z"/></g><g filter="url(#shadow)"><path d="M115 640c250-100 545-76 880-10 147 29 309 37 492-2l-40 115c-190 52-380 39-557 6-309-57-570-67-774 13z" fill="url(#log)"/><path d="M160 654c235-63 498-47 782 6 162 30 325 35 489 7" fill="none" stroke="#b9854e" stroke-width="18" opacity=".38"/><path d="M490 616l-46-180 42-18 83 177zM1080 645l83-205 44 19-44 210z" fill="#4b2b1a"/></g><g fill="#608c42"><ellipse cx="260" cy="735" rx="190" ry="62"/><ellipse cx="630" cy="780" rx="250" ry="72"/><ellipse cx="1210" cy="785" rx="280" ry="80"/></g><g fill="#d8c26f"><circle cx="116" cy="356" r="5"/><circle cx="330" cy="477" r="5"/><circle cx="544" cy="300" r="4"/><circle cx="1015" cy="345" r="5"/><circle cx="1340" cy="390" r="5"/><circle cx="1470" cy="318" r="4"/></g><g><circle cx="120" cy="790" r="28" fill="#a64a67"/><circle cx="165" cy="807" r="21" fill="#d57988"/><circle cx="1340" cy="790" r="25" fill="#9b4a8d"/><circle cx="1388" cy="815" r="20" fill="#d67da1"/><circle cx="1280" cy="825" r="16" fill="#f3bd6f"/></g><g fill="#efe0c2"><ellipse cx="720" cy="795" rx="60" ry="24"/><ellipse cx="835" cy="756" rx="48" ry="20"/><ellipse cx="925" cy="720" rx="42" ry="17"/></g></svg>